<svg width="96" height="96" viewBox="0 0 96 96" fill="none" xmlns="http://www.w3.org/2000/svg">
  <defs>
    <linearGradient id="aion-midnight" x1="18" y1="10" x2="78" y2="86" gradientUnits="userSpaceOnUse">
      <stop offset="0" stop-color="#0F1C2B" />
      <stop offset="1" stop-color="#172840" />
    </linearGradient>
    <radialGradient id="aion-glow" cx="0.25" cy="0.15" r="1">
      <stop offset="0" stop-color="#1F3149" stop-opacity="0.55" />
      <stop offset="1" stop-color="#1F3149" stop-opacity="0" />
    </radialGradient>
    <filter id="aion-shadow" x="0" y="0" width="96" height="96" filterUnits="userSpaceOnUse" color-interpolation-filters="sRGB">
      <feOffset dy="4" />
      <feGaussianBlur stdDeviation="8" result="blur" />
      <feColorMatrix type="matrix" values="0 0 0 0 0   0 0 0 0 0   0 0 0 0 0   0 0 0 0.45 0" />
      <feBlend in2="SourceGraphic" />
    </filter>
  </defs>
  <g filter="url(#aion-shadow)">
    <rect x="8" y="6" width="80" height="80" rx="18" fill="url(#aion-midnight)" />
    <rect x="8" y="6" width="80" height="80" rx="18" fill="url(#aion-glow)" />
    <rect x="8" y="6" width="80" height="80" rx="18" stroke="#0D1623" stroke-width="2" />
  </g>
  <g fill="#F5F6FA" stroke="#F5F6FA" stroke-width="2.2" stroke-linecap="round" stroke-linejoin="round">
    <path d="M27.6 61L37.9 34.6L48.1 61H43.8L41.5 54.7H34.3L31.9 61H27.6ZM35.8 49.9H40.2L38 43.4L35.8 49.9Z" />
    <path d="M50.9 34.6H55.2V61H50.9V34.6Z" />
    <path d="M73.9 34.6V61H69.8L58.7 44.1V61H54.4V34.6H58.6L69.6 51.3V34.6H73.9Z" />
  </g>
  <path d="M55.6 48.8C55.6 41.6 61.3 35.9 68.5 35.9C75.7 35.9 81.4 41.6 81.4 48.8C81.4 56 75.7 61.7 68.5 61.7C61.3 61.7 55.6 56 55.6 48.8ZM60 48.8C60 53.5 63.8 57.3 68.5 57.3C73.2 57.3 77 53.5 77 48.8C77 44.1 73.2 40.3 68.5 40.3C63.8 40.3 60 44.1 60 48.8Z" fill="#F5F6FA" />
  <path d="M68.5 43.2C65.5 43.2 63.1 45.7 63.1 48.6C63.1 51.5 65.5 54 68.5 54C71.5 54 73.9 51.5 73.9 48.6C73.9 45.7 71.5 43.2 68.5 43.2ZM68.5 38.9C73.9 38.9 78.1 43.2 78.1 48.6C78.1 54 73.9 58.3 68.5 58.3C63.1 58.3 58.9 54 58.9 48.6C58.9 43.2 63.1 38.9 68.5 38.9Z" fill="#111827" fill-opacity="0.35" />
</svg>
