<svg width="96" height="96" viewBox="0 0 96 96" fill="none" xmlns="http://www.w3.org/2000/svg">
  <defs>
    <linearGradient id="bg" x1="11" y1="7" x2="84" y2="88" gradientUnits="userSpaceOnUse">
      <stop offset="0" stop-color="#18232F" />
      <stop offset="1" stop-color="#0C121A" />
    </linearGradient>
    <linearGradient id="text" x1="24" y1="22" x2="72" y2="74" gradientUnits="userSpaceOnUse">
      <stop offset="0" stop-color="#FFFFFF" />
      <stop offset="1" stop-color="#E5E7EB" />
    </linearGradient>
    <filter id="shadow" x="0" y="0" width="96" height="96" filterUnits="userSpaceOnUse" color-interpolation-filters="sRGB">
      <feOffset dy="4" />
      <feGaussianBlur stdDeviation="8" result="blur" />
      <feColorMatrix type="matrix" values="0 0 0 0 0   0 0 0 0 0   0 0 0 0 0   0 0 0 0.35 0" />
      <feBlend in2="SourceGraphic" />
    </filter>
  </defs>
  <g filter="url(#shadow)">
    <rect x="8" y="6" width="80" height="80" rx="18" fill="url(#bg)" />
    <rect x="8" y="6" width="80" height="80" rx="18" stroke="#1F2A37" stroke-opacity="0.55" stroke-width="2" />
  </g>
  <g fill="url(#text)" stroke="url(#text)" stroke-width="2.2" stroke-linecap="round" stroke-linejoin="round">
    <path d="M27.6 61L37.9 34.6L48.1 61H43.8L41.5 54.7H34.3L31.9 61H27.6ZM35.8 49.9H40.2L38 43.4L35.8 49.9Z" />
    <path d="M50.9 34.6H55.2V61H50.9V34.6Z" />
    <path d="M73.9 34.6V61H69.8L58.7 44.1V61H54.4V34.6H58.6L69.6 51.3V34.6H73.9Z" />
  </g>
  <g stroke="url(#text)" stroke-width="2.2" fill="none">
    <path d="M57.3 42.8C57.3 37.7 61.2 33.8 66.3 33.8C71.4 33.8 75.3 37.7 75.3 42.8C75.3 47.9 71.4 51.8 66.3 51.8C61.2 51.8 57.3 47.9 57.3 42.8Z" opacity="0" />
  </g>
  <path d="M55.6 48.8C55.6 41.6 61.3 35.9 68.5 35.9C75.7 35.9 81.4 41.6 81.4 48.8C81.4 56 75.7 61.7 68.5 61.7C61.3 61.7 55.6 56 55.6 48.8ZM60 48.8C60 53.5 63.8 57.3 68.5 57.3C73.2 57.3 77 53.5 77 48.8C77 44.1 73.2 40.3 68.5 40.3C63.8 40.3 60 44.1 60 48.8Z" fill="url(#text)" />
  <circle cx="68.5" cy="48.8" r="5.6" fill="url(#text)" />
  <path d="M68.5 43.2C65.5 43.2 63.1 45.7 63.1 48.6C63.1 51.5 65.5 54 68.5 54C71.5 54 73.9 51.5 73.9 48.6C73.9 45.7 71.5 43.2 68.5 43.2ZM68.5 38.9C73.9 38.9 78.1 43.2 78.1 48.6C78.1 54 73.9 58.3 68.5 58.3C63.1 58.3 58.9 54 58.9 48.6C58.9 43.2 63.1 38.9 68.5 38.9Z" fill="#111827" opacity="0.35" />
</svg>
